<mxfile host="app.diagrams.net" agent="Mozilla/5.0 (Windows NT 10.0; Win64; x64) AppleWebKit/537.36 (KHTML, like Gecko) Chrome/133.0.0.0 Safari/537.36" version="26.0.16">
  <diagram name="Pagina-1" id="U15-9ZOeLGcShA4NubGZ">
    <mxGraphModel dx="1687" dy="2047" grid="1" gridSize="10" guides="1" tooltips="1" connect="1" arrows="1" fold="1" page="1" pageScale="1" pageWidth="827" pageHeight="1169" math="0" shadow="0">
      <root>
        <mxCell id="0" />
        <mxCell id="1" parent="0" />
        <mxCell id="nAU2V2irXed_U36i0_ef-1" value="Begin Inlogproces" style="ellipse;whiteSpace=wrap;html=1;" vertex="1" parent="1">
          <mxGeometry x="351" y="-670" width="120" height="80" as="geometry" />
        </mxCell>
        <mxCell id="nAU2V2irXed_U36i0_ef-3" value="Bestaat de gebruikersnaam?" style="rhombus;whiteSpace=wrap;html=1;fillColor=#e1d5e7;strokeColor=#9673a6;" vertex="1" parent="1">
          <mxGeometry x="351" y="-350" width="126" height="130" as="geometry" />
        </mxCell>
        <mxCell id="nAU2V2irXed_U36i0_ef-5" value="Is het de juiste wachtwoord?" style="rhombus;whiteSpace=wrap;html=1;fillColor=#e1d5e7;strokeColor=#9673a6;" vertex="1" parent="1">
          <mxGeometry x="351" y="-20" width="126" height="130" as="geometry" />
        </mxCell>
        <mxCell id="nAU2V2irXed_U36i0_ef-6" value="" style="shape=flexArrow;endArrow=classic;html=1;rounded=0;exitX=1;exitY=0.5;exitDx=0;exitDy=0;" edge="1" parent="1" source="nAU2V2irXed_U36i0_ef-3">
          <mxGeometry width="50" height="50" relative="1" as="geometry">
            <mxPoint x="480" y="-280" as="sourcePoint" />
            <mxPoint x="630" y="-285" as="targetPoint" />
          </mxGeometry>
        </mxCell>
        <mxCell id="nAU2V2irXed_U36i0_ef-7" value="" style="shape=flexArrow;endArrow=classic;html=1;rounded=0;exitX=0.5;exitY=1;exitDx=0;exitDy=0;" edge="1" parent="1" source="nAU2V2irXed_U36i0_ef-1">
          <mxGeometry width="50" height="50" relative="1" as="geometry">
            <mxPoint x="410" y="-390" as="sourcePoint" />
            <mxPoint x="414" y="-460" as="targetPoint" />
          </mxGeometry>
        </mxCell>
        <mxCell id="nAU2V2irXed_U36i0_ef-8" value="Bestaat niet" style="text;html=1;align=center;verticalAlign=middle;whiteSpace=wrap;rounded=0;fillColor=#f8cecc;strokeColor=#b85450;" vertex="1" parent="1">
          <mxGeometry x="500" y="-330" width="60" height="30" as="geometry" />
        </mxCell>
        <mxCell id="nAU2V2irXed_U36i0_ef-9" value="Toon foutmelding" style="rounded=0;whiteSpace=wrap;html=1;" vertex="1" parent="1">
          <mxGeometry x="630" y="-315" width="120" height="60" as="geometry" />
        </mxCell>
        <mxCell id="nAU2V2irXed_U36i0_ef-10" value="" style="shape=flexArrow;endArrow=classic;html=1;rounded=0;exitX=0.5;exitY=1;exitDx=0;exitDy=0;entryX=0.5;entryY=0;entryDx=0;entryDy=0;" edge="1" parent="1">
          <mxGeometry width="50" height="50" relative="1" as="geometry">
            <mxPoint x="413" y="-220" as="sourcePoint" />
            <mxPoint x="413" y="-120" as="targetPoint" />
          </mxGeometry>
        </mxCell>
        <mxCell id="nAU2V2irXed_U36i0_ef-11" value="Bestaat" style="text;html=1;align=center;verticalAlign=middle;whiteSpace=wrap;rounded=0;fillColor=#d5e8d4;strokeColor=#82b366;" vertex="1" parent="1">
          <mxGeometry x="340" y="-200" width="60" height="30" as="geometry" />
        </mxCell>
        <mxCell id="nAU2V2irXed_U36i0_ef-12" value="" style="shape=flexArrow;endArrow=classic;html=1;rounded=0;exitX=1;exitY=0.5;exitDx=0;exitDy=0;entryX=0;entryY=0.5;entryDx=0;entryDy=0;" edge="1" parent="1" source="nAU2V2irXed_U36i0_ef-5" target="nAU2V2irXed_U36i0_ef-13">
          <mxGeometry width="50" height="50" relative="1" as="geometry">
            <mxPoint x="480" y="-50" as="sourcePoint" />
            <mxPoint x="630" y="-55" as="targetPoint" />
          </mxGeometry>
        </mxCell>
        <mxCell id="nAU2V2irXed_U36i0_ef-13" value="Toon foutmelding" style="rounded=0;whiteSpace=wrap;html=1;" vertex="1" parent="1">
          <mxGeometry x="630" y="15" width="120" height="60" as="geometry" />
        </mxCell>
        <mxCell id="nAU2V2irXed_U36i0_ef-16" value="Onjuist" style="text;html=1;align=center;verticalAlign=middle;whiteSpace=wrap;rounded=0;fillColor=#f8cecc;strokeColor=#b85450;" vertex="1" parent="1">
          <mxGeometry x="510" width="60" height="30" as="geometry" />
        </mxCell>
        <mxCell id="nAU2V2irXed_U36i0_ef-17" value="&#xa;&lt;span style=&quot;color: rgb(33, 37, 41); font-family: system-ui, -apple-system, &amp;quot;Segoe UI&amp;quot;, Roboto, &amp;quot;Helvetica Neue&amp;quot;, &amp;quot;Noto Sans&amp;quot;, &amp;quot;Liberation Sans&amp;quot;, Arial, sans-serif, &amp;quot;Apple Color Emoji&amp;quot;, &amp;quot;Segoe UI Emoji&amp;quot;, &amp;quot;Segoe UI Symbol&amp;quot;, &amp;quot;Noto Color Emoji&amp;quot;; font-size: 16px; font-style: normal; font-variant-ligatures: normal; font-variant-caps: normal; font-weight: 400; letter-spacing: normal; orphans: 2; text-align: left; text-indent: 0px; text-transform: none; widows: 2; word-spacing: 0px; -webkit-text-stroke-width: 0px; white-space: normal; background-color: rgba(207, 226, 255, 0.2); text-decoration-thickness: initial; text-decoration-style: initial; text-decoration-color: initial; display: inline !important; float: none;&quot;&gt;Geef toegang tot dashboard&lt;/span&gt;&#xa;&#xa;" style="rounded=0;whiteSpace=wrap;html=1;" vertex="1" parent="1">
          <mxGeometry x="354" y="290" width="120" height="60" as="geometry" />
        </mxCell>
        <mxCell id="nAU2V2irXed_U36i0_ef-18" value="" style="shape=flexArrow;endArrow=classic;html=1;rounded=0;entryX=0.5;entryY=0;entryDx=0;entryDy=0;" edge="1" parent="1" target="nAU2V2irXed_U36i0_ef-17">
          <mxGeometry width="50" height="50" relative="1" as="geometry">
            <mxPoint x="414" y="110" as="sourcePoint" />
            <mxPoint x="480" y="-10" as="targetPoint" />
          </mxGeometry>
        </mxCell>
        <mxCell id="nAU2V2irXed_U36i0_ef-19" value="Juist" style="text;html=1;align=center;verticalAlign=middle;whiteSpace=wrap;rounded=0;fillColor=#d5e8d4;strokeColor=#82b366;" vertex="1" parent="1">
          <mxGeometry x="330" y="190" width="60" height="30" as="geometry" />
        </mxCell>
        <mxCell id="nAU2V2irXed_U36i0_ef-20" value="Controleer gebruikersnaam" style="rounded=0;whiteSpace=wrap;html=1;" vertex="1" parent="1">
          <mxGeometry x="354" y="-460" width="120" height="60" as="geometry" />
        </mxCell>
        <mxCell id="nAU2V2irXed_U36i0_ef-21" value="" style="shape=flexArrow;endArrow=classic;html=1;rounded=0;exitX=0.5;exitY=1;exitDx=0;exitDy=0;entryX=0.5;entryY=0;entryDx=0;entryDy=0;" edge="1" parent="1" source="nAU2V2irXed_U36i0_ef-20" target="nAU2V2irXed_U36i0_ef-3">
          <mxGeometry width="50" height="50" relative="1" as="geometry">
            <mxPoint x="410" y="-360" as="sourcePoint" />
            <mxPoint x="460" y="-410" as="targetPoint" />
          </mxGeometry>
        </mxCell>
        <mxCell id="nAU2V2irXed_U36i0_ef-22" value="Controleer of het juiste wachtwoord is ingevoerd" style="rounded=0;whiteSpace=wrap;html=1;" vertex="1" parent="1">
          <mxGeometry x="357" y="-120" width="120" height="60" as="geometry" />
        </mxCell>
        <mxCell id="nAU2V2irXed_U36i0_ef-23" value="" style="shape=flexArrow;endArrow=classic;html=1;rounded=0;entryX=0.5;entryY=0;entryDx=0;entryDy=0;exitX=0.5;exitY=1;exitDx=0;exitDy=0;" edge="1" parent="1" source="nAU2V2irXed_U36i0_ef-22" target="nAU2V2irXed_U36i0_ef-5">
          <mxGeometry width="50" height="50" relative="1" as="geometry">
            <mxPoint x="410" y="-50" as="sourcePoint" />
            <mxPoint x="460" y="-100" as="targetPoint" />
          </mxGeometry>
        </mxCell>
      </root>
    </mxGraphModel>
  </diagram>
</mxfile>
